<svg class="main-svg" xmlns="http://www.w3.org/2000/svg" xmlns:xlink="http://www.w3.org/1999/xlink" width="700" height="500" style="" viewBox="0 0 700 500"><rect x="0" y="0" width="700" height="500" style="fill: rgb(255, 255, 255); fill-opacity: 1;"/><defs id="defs-872b7c"><g class="clips"><clipPath id="clip872b7cxyplot" class="plotclip"><rect width="540" height="343"/></clipPath><clipPath class="axesclip" id="clip872b7cx"><rect x="80" y="0" width="540" height="500"/></clipPath><clipPath class="axesclip" id="clip872b7cy"><rect x="0" y="60" width="700" height="343"/></clipPath><clipPath class="axesclip" id="clip872b7cxy"><rect x="80" y="60" width="540" height="343"/></clipPath></g><g class="gradients"/><g class="patterns"/></defs><g class="bglayer"><rect class="bg" x="80" y="60" width="540" height="343" style="fill: rgb(219, 237, 243); fill-opacity: 1; stroke-width: 0;"/></g><g class="layer-below"><g class="imagelayer"/><g class="shapelayer"/></g><g class="cartesianlayer"><g class="subplot xy"><g class="layer-subplot"><g class="shapelayer"/><g class="imagelayer"/></g><g class="gridlayer"><g class="x"><path class="xgrid crisp" transform="translate(110.75,0)" d="M0,60v343" style="stroke: rgb(255, 255, 255); stroke-opacity: 1; stroke-width: 1px;"/><path class="xgrid crisp" transform="translate(129.15,0)" d="M0,60v343" style="stroke: rgb(255, 255, 255); stroke-opacity: 1; stroke-width: 1px;"/><path class="xgrid crisp" transform="translate(147.56,0)" d="M0,60v343" style="stroke: rgb(255, 255, 255); stroke-opacity: 1; stroke-width: 1px;"/><path class="xgrid crisp" transform="translate(165.95999999999998,0)" d="M0,60v343" style="stroke: rgb(255, 255, 255); stroke-opacity: 1; stroke-width: 1px;"/><path class="xgrid crisp" transform="translate(184.37,0)" d="M0,60v343" style="stroke: rgb(255, 255, 255); stroke-opacity: 1; stroke-width: 1px;"/><path class="xgrid crisp" transform="translate(202.76999999999998,0)" d="M0,60v343" style="stroke: rgb(255, 255, 255); stroke-opacity: 1; stroke-width: 1px;"/><path class="xgrid crisp" transform="translate(221.17,0)" d="M0,60v343" style="stroke: rgb(255, 255, 255); stroke-opacity: 1; stroke-width: 1px;"/><path class="xgrid crisp" transform="translate(239.58,0)" d="M0,60v343" style="stroke: rgb(255, 255, 255); stroke-opacity: 1; stroke-width: 1px;"/><path class="xgrid crisp" transform="translate(257.98,0)" d="M0,60v343" style="stroke: rgb(255, 255, 255); stroke-opacity: 1; stroke-width: 1px;"/><path class="xgrid crisp" transform="translate(276.38,0)" d="M0,60v343" style="stroke: rgb(255, 255, 255); stroke-opacity: 1; stroke-width: 1px;"/><path class="xgrid crisp" transform="translate(294.78999999999996,0)" d="M0,60v343" style="stroke: rgb(255, 255, 255); stroke-opacity: 1; stroke-width: 1px;"/><path class="xgrid crisp" transform="translate(313.19,0)" d="M0,60v343" style="stroke: rgb(255, 255, 255); stroke-opacity: 1; stroke-width: 1px;"/><path class="xgrid crisp" transform="translate(331.6,0)" d="M0,60v343" style="stroke: rgb(255, 255, 255); stroke-opacity: 1; stroke-width: 1px;"/><path class="xgrid crisp" transform="translate(350,0)" d="M0,60v343" style="stroke: rgb(255, 255, 255); stroke-opacity: 1; stroke-width: 1px;"/><path class="xgrid crisp" transform="translate(368.4,0)" d="M0,60v343" style="stroke: rgb(255, 255, 255); stroke-opacity: 1; stroke-width: 1px;"/><path class="xgrid crisp" transform="translate(386.81,0)" d="M0,60v343" style="stroke: rgb(255, 255, 255); stroke-opacity: 1; stroke-width: 1px;"/><path class="xgrid crisp" transform="translate(405.21,0)" d="M0,60v343" style="stroke: rgb(255, 255, 255); stroke-opacity: 1; stroke-width: 1px;"/><path class="xgrid crisp" transform="translate(423.62,0)" d="M0,60v343" style="stroke: rgb(255, 255, 255); stroke-opacity: 1; stroke-width: 1px;"/><path class="xgrid crisp" transform="translate(442.02,0)" d="M0,60v343" style="stroke: rgb(255, 255, 255); stroke-opacity: 1; stroke-width: 1px;"/><path class="xgrid crisp" transform="translate(460.42,0)" d="M0,60v343" style="stroke: rgb(255, 255, 255); stroke-opacity: 1; stroke-width: 1px;"/><path class="xgrid crisp" transform="translate(478.83,0)" d="M0,60v343" style="stroke: rgb(255, 255, 255); stroke-opacity: 1; stroke-width: 1px;"/><path class="xgrid crisp" transform="translate(497.23,0)" d="M0,60v343" style="stroke: rgb(255, 255, 255); stroke-opacity: 1; stroke-width: 1px;"/><path class="xgrid crisp" transform="translate(515.63,0)" d="M0,60v343" style="stroke: rgb(255, 255, 255); stroke-opacity: 1; stroke-width: 1px;"/><path class="xgrid crisp" transform="translate(534.04,0)" d="M0,60v343" style="stroke: rgb(255, 255, 255); stroke-opacity: 1; stroke-width: 1px;"/><path class="xgrid crisp" transform="translate(552.44,0)" d="M0,60v343" style="stroke: rgb(255, 255, 255); stroke-opacity: 1; stroke-width: 1px;"/><path class="xgrid crisp" transform="translate(570.85,0)" d="M0,60v343" style="stroke: rgb(255, 255, 255); stroke-opacity: 1; stroke-width: 1px;"/><path class="xgrid crisp" transform="translate(589.25,0)" d="M0,60v343" style="stroke: rgb(255, 255, 255); stroke-opacity: 1; stroke-width: 1px;"/></g><g class="y"><path class="ygrid crisp" transform="translate(0,357)" d="M80,0h540" style="stroke: rgb(255, 255, 255); stroke-opacity: 1; stroke-width: 1px;"/><path class="ygrid crisp" transform="translate(0,306.8)" d="M80,0h540" style="stroke: rgb(255, 255, 255); stroke-opacity: 1; stroke-width: 1px;"/><path class="ygrid crisp" transform="translate(0,256.6)" d="M80,0h540" style="stroke: rgb(255, 255, 255); stroke-opacity: 1; stroke-width: 1px;"/><path class="ygrid crisp" transform="translate(0,206.4)" d="M80,0h540" style="stroke: rgb(255, 255, 255); stroke-opacity: 1; stroke-width: 1px;"/><path class="ygrid crisp" transform="translate(0,156.2)" d="M80,0h540" style="stroke: rgb(255, 255, 255); stroke-opacity: 1; stroke-width: 1px;"/><path class="ygrid crisp" transform="translate(0,106)" d="M80,0h540" style="stroke: rgb(255, 255, 255); stroke-opacity: 1; stroke-width: 1px;"/></g></g><g class="zerolinelayer"/><path class="xlines-below"/><path class="ylines-below"/><g class="overlines-below"/><g class="xaxislayer-below"/><g class="yaxislayer-below"/><g class="overaxes-below"/><g class="plot" transform="translate(80,60)" clip-path="url(#clip872b7cxyplot)"><g class="scatterlayer mlayer"><g class="trace scatter trace78523e" style="stroke-miterlimit: 2; opacity: 1;"><g class="fills"/><g class="errorbars"/><g class="lines"><path class="js-line" d="M30.75,322.1L49.15,20.9L67.56,297L85.96,297L104.37,246.8L122.77,246.8L141.17,271.9L159.58,322.1L177.98,322.1L233.19,322.1L251.6,297L270,322.1L288.4,322.1L306.81,322.1L325.21,171.5L343.62,246.8L362.02,271.9L380.42,297L398.83,271.9L417.23,322.1L435.63,297L454.04,322.1L472.44,171.5L490.85,71.1L509.25,297" style="vector-effect: non-scaling-stroke; fill: none; stroke: rgb(64, 75, 105); stroke-opacity: 1; stroke-width: 2px; opacity: 1;"/></g><g class="points"><path class="point" transform="translate(30.75,322.1)" d="M3,0A3,3 0 1,1 0,-3A3,3 0 0,1 3,0Z" style="opacity: 1; stroke-width: 0px; fill: rgb(64, 75, 105); fill-opacity: 1;"/><path class="point" transform="translate(49.15,20.9)" d="M3,0A3,3 0 1,1 0,-3A3,3 0 0,1 3,0Z" style="opacity: 1; stroke-width: 0px; fill: rgb(64, 75, 105); fill-opacity: 1;"/><path class="point" transform="translate(67.56,297)" d="M3,0A3,3 0 1,1 0,-3A3,3 0 0,1 3,0Z" style="opacity: 1; stroke-width: 0px; fill: rgb(64, 75, 105); fill-opacity: 1;"/><path class="point" transform="translate(85.96,297)" d="M3,0A3,3 0 1,1 0,-3A3,3 0 0,1 3,0Z" style="opacity: 1; stroke-width: 0px; fill: rgb(64, 75, 105); fill-opacity: 1;"/><path class="point" transform="translate(104.37,246.8)" d="M3,0A3,3 0 1,1 0,-3A3,3 0 0,1 3,0Z" style="opacity: 1; stroke-width: 0px; fill: rgb(64, 75, 105); fill-opacity: 1;"/><path class="point" transform="translate(122.77,246.8)" d="M3,0A3,3 0 1,1 0,-3A3,3 0 0,1 3,0Z" style="opacity: 1; stroke-width: 0px; fill: rgb(64, 75, 105); fill-opacity: 1;"/><path class="point" transform="translate(141.17,271.9)" d="M3,0A3,3 0 1,1 0,-3A3,3 0 0,1 3,0Z" style="opacity: 1; stroke-width: 0px; fill: rgb(64, 75, 105); fill-opacity: 1;"/><path class="point" transform="translate(159.58,322.1)" d="M3,0A3,3 0 1,1 0,-3A3,3 0 0,1 3,0Z" style="opacity: 1; stroke-width: 0px; fill: rgb(64, 75, 105); fill-opacity: 1;"/><path class="point" transform="translate(177.98,322.1)" d="M3,0A3,3 0 1,1 0,-3A3,3 0 0,1 3,0Z" style="opacity: 1; stroke-width: 0px; fill: rgb(64, 75, 105); fill-opacity: 1;"/><path class="point" transform="translate(196.38,322.1)" d="M3,0A3,3 0 1,1 0,-3A3,3 0 0,1 3,0Z" style="opacity: 1; stroke-width: 0px; fill: rgb(64, 75, 105); fill-opacity: 1;"/><path class="point" transform="translate(214.79,322.1)" d="M3,0A3,3 0 1,1 0,-3A3,3 0 0,1 3,0Z" style="opacity: 1; stroke-width: 0px; fill: rgb(64, 75, 105); fill-opacity: 1;"/><path class="point" transform="translate(233.19,322.1)" d="M3,0A3,3 0 1,1 0,-3A3,3 0 0,1 3,0Z" style="opacity: 1; stroke-width: 0px; fill: rgb(64, 75, 105); fill-opacity: 1;"/><path class="point" transform="translate(251.6,297)" d="M3,0A3,3 0 1,1 0,-3A3,3 0 0,1 3,0Z" style="opacity: 1; stroke-width: 0px; fill: rgb(64, 75, 105); fill-opacity: 1;"/><path class="point" transform="translate(270,322.1)" d="M3,0A3,3 0 1,1 0,-3A3,3 0 0,1 3,0Z" style="opacity: 1; stroke-width: 0px; fill: rgb(64, 75, 105); fill-opacity: 1;"/><path class="point" transform="translate(288.4,322.1)" d="M3,0A3,3 0 1,1 0,-3A3,3 0 0,1 3,0Z" style="opacity: 1; stroke-width: 0px; fill: rgb(64, 75, 105); fill-opacity: 1;"/><path class="point" transform="translate(306.81,322.1)" d="M3,0A3,3 0 1,1 0,-3A3,3 0 0,1 3,0Z" style="opacity: 1; stroke-width: 0px; fill: rgb(64, 75, 105); fill-opacity: 1;"/><path class="point" transform="translate(325.21,171.5)" d="M3,0A3,3 0 1,1 0,-3A3,3 0 0,1 3,0Z" style="opacity: 1; stroke-width: 0px; fill: rgb(64, 75, 105); fill-opacity: 1;"/><path class="point" transform="translate(343.62,246.8)" d="M3,0A3,3 0 1,1 0,-3A3,3 0 0,1 3,0Z" style="opacity: 1; stroke-width: 0px; fill: rgb(64, 75, 105); fill-opacity: 1;"/><path class="point" transform="translate(362.02,271.9)" d="M3,0A3,3 0 1,1 0,-3A3,3 0 0,1 3,0Z" style="opacity: 1; stroke-width: 0px; fill: rgb(64, 75, 105); fill-opacity: 1;"/><path class="point" transform="translate(380.42,297)" d="M3,0A3,3 0 1,1 0,-3A3,3 0 0,1 3,0Z" style="opacity: 1; stroke-width: 0px; fill: rgb(64, 75, 105); fill-opacity: 1;"/><path class="point" transform="translate(398.83,271.9)" d="M3,0A3,3 0 1,1 0,-3A3,3 0 0,1 3,0Z" style="opacity: 1; stroke-width: 0px; fill: rgb(64, 75, 105); fill-opacity: 1;"/><path class="point" transform="translate(417.23,322.1)" d="M3,0A3,3 0 1,1 0,-3A3,3 0 0,1 3,0Z" style="opacity: 1; stroke-width: 0px; fill: rgb(64, 75, 105); fill-opacity: 1;"/><path class="point" transform="translate(435.63,297)" d="M3,0A3,3 0 1,1 0,-3A3,3 0 0,1 3,0Z" style="opacity: 1; stroke-width: 0px; fill: rgb(64, 75, 105); fill-opacity: 1;"/><path class="point" transform="translate(454.04,322.1)" d="M3,0A3,3 0 1,1 0,-3A3,3 0 0,1 3,0Z" style="opacity: 1; stroke-width: 0px; fill: rgb(64, 75, 105); fill-opacity: 1;"/><path class="point" transform="translate(472.44,171.5)" d="M3,0A3,3 0 1,1 0,-3A3,3 0 0,1 3,0Z" style="opacity: 1; stroke-width: 0px; fill: rgb(64, 75, 105); fill-opacity: 1;"/><path class="point" transform="translate(490.85,71.1)" d="M3,0A3,3 0 1,1 0,-3A3,3 0 0,1 3,0Z" style="opacity: 1; stroke-width: 0px; fill: rgb(64, 75, 105); fill-opacity: 1;"/><path class="point" transform="translate(509.25,297)" d="M3,0A3,3 0 1,1 0,-3A3,3 0 0,1 3,0Z" style="opacity: 1; stroke-width: 0px; fill: rgb(64, 75, 105); fill-opacity: 1;"/></g><g class="text"/></g></g></g><g class="overplot"/><path class="xlines-above crisp" d="M0,0" style="fill: none;"/><path class="ylines-above crisp" d="M0,0" style="fill: none;"/><g class="overlines-above"/><g class="xaxislayer-above"><g class="xtick"><text text-anchor="start" x="0" y="416" transform="translate(110.75,0) rotate(90,0,410)" style="font-family: 'Open Sans', verdana, arial, sans-serif; font-size: 12px; fill: rgb(40, 49, 73); fill-opacity: 1; white-space: pre; opacity: 1;">Jan 2018</text></g><g class="xtick"><text text-anchor="start" x="0" y="416" transform="translate(129.15,0) rotate(90,0,410)" style="font-family: 'Open Sans', verdana, arial, sans-serif; font-size: 12px; fill: rgb(40, 49, 73); fill-opacity: 1; white-space: pre; opacity: 1;">Feb 2018</text></g><g class="xtick"><text text-anchor="start" x="0" y="416" transform="translate(147.56,0) rotate(90,0,410)" style="font-family: 'Open Sans', verdana, arial, sans-serif; font-size: 12px; fill: rgb(40, 49, 73); fill-opacity: 1; white-space: pre; opacity: 1;">Mar 2018</text></g><g class="xtick"><text text-anchor="start" x="0" y="416" transform="translate(165.95999999999998,0) rotate(90,0,410)" style="font-family: 'Open Sans', verdana, arial, sans-serif; font-size: 12px; fill: rgb(40, 49, 73); fill-opacity: 1; white-space: pre; opacity: 1;">Apr 2018</text></g><g class="xtick"><text text-anchor="start" x="0" y="416" transform="translate(184.37,0) rotate(90,0,410)" style="font-family: 'Open Sans', verdana, arial, sans-serif; font-size: 12px; fill: rgb(40, 49, 73); fill-opacity: 1; white-space: pre; opacity: 1;">May 2018</text></g><g class="xtick"><text text-anchor="start" x="0" y="416" transform="translate(202.76999999999998,0) rotate(90,0,410)" style="font-family: 'Open Sans', verdana, arial, sans-serif; font-size: 12px; fill: rgb(40, 49, 73); fill-opacity: 1; white-space: pre; opacity: 1;">Jul 2018</text></g><g class="xtick"><text text-anchor="start" x="0" y="416" transform="translate(221.17,0) rotate(90,0,410)" style="font-family: 'Open Sans', verdana, arial, sans-serif; font-size: 12px; fill: rgb(40, 49, 73); fill-opacity: 1; white-space: pre; opacity: 1;">Aug 2018</text></g><g class="xtick"><text text-anchor="start" x="0" y="416" transform="translate(239.58,0) rotate(90,0,410)" style="font-family: 'Open Sans', verdana, arial, sans-serif; font-size: 12px; fill: rgb(40, 49, 73); fill-opacity: 1; white-space: pre; opacity: 1;">Sep 2018</text></g><g class="xtick"><text text-anchor="start" x="0" y="416" transform="translate(257.98,0) rotate(90,0,410)" style="font-family: 'Open Sans', verdana, arial, sans-serif; font-size: 12px; fill: rgb(40, 49, 73); fill-opacity: 1; white-space: pre; opacity: 1;">Jan 2019</text></g><g class="xtick"><text text-anchor="start" x="0" y="416" transform="translate(276.38,0) rotate(90,0,410)" style="font-family: 'Open Sans', verdana, arial, sans-serif; font-size: 12px; fill: rgb(40, 49, 73); fill-opacity: 1; white-space: pre; opacity: 1;">Feb 2019</text></g><g class="xtick"><text text-anchor="start" x="0" y="416" transform="translate(294.78999999999996,0) rotate(90,0,410)" style="font-family: 'Open Sans', verdana, arial, sans-serif; font-size: 12px; fill: rgb(40, 49, 73); fill-opacity: 1; white-space: pre; opacity: 1;">Mar 2019</text></g><g class="xtick"><text text-anchor="start" x="0" y="416" transform="translate(313.19,0) rotate(90,0,410)" style="font-family: 'Open Sans', verdana, arial, sans-serif; font-size: 12px; fill: rgb(40, 49, 73); fill-opacity: 1; white-space: pre; opacity: 1;">May 2019</text></g><g class="xtick"><text text-anchor="start" x="0" y="416" transform="translate(331.6,0) rotate(90,0,410)" style="font-family: 'Open Sans', verdana, arial, sans-serif; font-size: 12px; fill: rgb(40, 49, 73); fill-opacity: 1; white-space: pre; opacity: 1;">Jun 2019</text></g><g class="xtick"><text text-anchor="start" x="0" y="416" transform="translate(350,0) rotate(90,0,410)" style="font-family: 'Open Sans', verdana, arial, sans-serif; font-size: 12px; fill: rgb(40, 49, 73); fill-opacity: 1; white-space: pre; opacity: 1;">Jul 2019</text></g><g class="xtick"><text text-anchor="start" x="0" y="416" transform="translate(368.4,0) rotate(90,0,410)" style="font-family: 'Open Sans', verdana, arial, sans-serif; font-size: 12px; fill: rgb(40, 49, 73); fill-opacity: 1; white-space: pre; opacity: 1;">Sep 2019</text></g><g class="xtick"><text text-anchor="start" x="0" y="416" transform="translate(386.81,0) rotate(90,0,410)" style="font-family: 'Open Sans', verdana, arial, sans-serif; font-size: 12px; fill: rgb(40, 49, 73); fill-opacity: 1; white-space: pre; opacity: 1;">Mar 2020</text></g><g class="xtick"><text text-anchor="start" x="0" y="416" transform="translate(405.21,0) rotate(90,0,410)" style="font-family: 'Open Sans', verdana, arial, sans-serif; font-size: 12px; fill: rgb(40, 49, 73); fill-opacity: 1; white-space: pre; opacity: 1;">Aug 2020</text></g><g class="xtick"><text text-anchor="start" x="0" y="416" transform="translate(423.62,0) rotate(90,0,410)" style="font-family: 'Open Sans', verdana, arial, sans-serif; font-size: 12px; fill: rgb(40, 49, 73); fill-opacity: 1; white-space: pre; opacity: 1;">Sep 2020</text></g><g class="xtick"><text text-anchor="start" x="0" y="416" transform="translate(442.02,0) rotate(90,0,410)" style="font-family: 'Open Sans', verdana, arial, sans-serif; font-size: 12px; fill: rgb(40, 49, 73); fill-opacity: 1; white-space: pre; opacity: 1;">Oct 2020</text></g><g class="xtick"><text text-anchor="start" x="0" y="416" transform="translate(460.42,0) rotate(90,0,410)" style="font-family: 'Open Sans', verdana, arial, sans-serif; font-size: 12px; fill: rgb(40, 49, 73); fill-opacity: 1; white-space: pre; opacity: 1;">Nov 2020</text></g><g class="xtick"><text text-anchor="start" x="0" y="416" transform="translate(478.83,0) rotate(90,0,410)" style="font-family: 'Open Sans', verdana, arial, sans-serif; font-size: 12px; fill: rgb(40, 49, 73); fill-opacity: 1; white-space: pre; opacity: 1;">Dec 2020</text></g><g class="xtick"><text text-anchor="start" x="0" y="416" transform="translate(497.23,0) rotate(90,0,410)" style="font-family: 'Open Sans', verdana, arial, sans-serif; font-size: 12px; fill: rgb(40, 49, 73); fill-opacity: 1; white-space: pre; opacity: 1;">Jan 2021</text></g><g class="xtick"><text text-anchor="start" x="0" y="416" transform="translate(515.63,0) rotate(90,0,410)" style="font-family: 'Open Sans', verdana, arial, sans-serif; font-size: 12px; fill: rgb(40, 49, 73); fill-opacity: 1; white-space: pre; opacity: 1;">Mar 2021</text></g><g class="xtick"><text text-anchor="start" x="0" y="416" transform="translate(534.04,0) rotate(90,0,410)" style="font-family: 'Open Sans', verdana, arial, sans-serif; font-size: 12px; fill: rgb(40, 49, 73); fill-opacity: 1; white-space: pre; opacity: 1;">Apr 2021</text></g><g class="xtick"><text text-anchor="start" x="0" y="416" transform="translate(552.44,0) rotate(90,0,410)" style="font-family: 'Open Sans', verdana, arial, sans-serif; font-size: 12px; fill: rgb(40, 49, 73); fill-opacity: 1; white-space: pre; opacity: 1;">May 2021</text></g><g class="xtick"><text text-anchor="start" x="0" y="416" transform="translate(570.85,0) rotate(90,0,410)" style="font-family: 'Open Sans', verdana, arial, sans-serif; font-size: 12px; fill: rgb(40, 49, 73); fill-opacity: 1; white-space: pre; opacity: 1;">Jun 2021</text></g><g class="xtick"><text text-anchor="start" x="0" y="416" transform="translate(589.25,0) rotate(90,0,410)" style="font-family: 'Open Sans', verdana, arial, sans-serif; font-size: 12px; fill: rgb(40, 49, 73); fill-opacity: 1; white-space: pre; opacity: 1;">Jul 2021</text></g></g><g class="yaxislayer-above"><g class="ytick"><text text-anchor="end" x="79" y="4.199999999999999" transform="translate(0,357)" style="font-family: 'Open Sans', verdana, arial, sans-serif; font-size: 12px; fill: rgb(40, 49, 73); fill-opacity: 1; white-space: pre; opacity: 1;">2</text></g><g class="ytick"><text text-anchor="end" x="79" y="4.199999999999999" style="font-family: 'Open Sans', verdana, arial, sans-serif; font-size: 12px; fill: rgb(40, 49, 73); fill-opacity: 1; white-space: pre; opacity: 1;" transform="translate(0,306.8)">4</text></g><g class="ytick"><text text-anchor="end" x="79" y="4.199999999999999" style="font-family: 'Open Sans', verdana, arial, sans-serif; font-size: 12px; fill: rgb(40, 49, 73); fill-opacity: 1; white-space: pre; opacity: 1;" transform="translate(0,256.6)">6</text></g><g class="ytick"><text text-anchor="end" x="79" y="4.199999999999999" style="font-family: 'Open Sans', verdana, arial, sans-serif; font-size: 12px; fill: rgb(40, 49, 73); fill-opacity: 1; white-space: pre; opacity: 1;" transform="translate(0,206.4)">8</text></g><g class="ytick"><text text-anchor="end" x="79" y="4.199999999999999" style="font-family: 'Open Sans', verdana, arial, sans-serif; font-size: 12px; fill: rgb(40, 49, 73); fill-opacity: 1; white-space: pre; opacity: 1;" transform="translate(0,156.2)">10</text></g><g class="ytick"><text text-anchor="end" x="79" y="4.199999999999999" style="font-family: 'Open Sans', verdana, arial, sans-serif; font-size: 12px; fill: rgb(40, 49, 73); fill-opacity: 1; white-space: pre; opacity: 1;" transform="translate(0,106)">12</text></g></g><g class="overaxes-above"/></g></g><g class="polarlayer"/><g class="smithlayer"/><g class="ternarylayer"/><g class="geolayer"/><g class="funnelarealayer"/><g class="pielayer"/><g class="iciclelayer"/><g class="treemaplayer"/><g class="sunburstlayer"/><g class="glimages"/><defs id="topdefs-872b7c"><g class="clips"/></defs><g class="layer-above"><g class="imagelayer"/><g class="shapelayer"/></g><g class="infolayer"><g class="g-gtitle"><text class="gtitle" x="35" y="30" text-anchor="start" dy="0em" style="font-family: 'Open Sans', verdana, arial, sans-serif; font-size: 17px; fill: rgb(40, 49, 73); opacity: 1; font-weight: normal; white-space: pre;">Time series of new connections</text></g><g class="g-xtitle"><text class="xtitle" x="350" y="487.83125" text-anchor="middle" style="font-family: 'Open Sans', verdana, arial, sans-serif; font-size: 14px; fill: rgb(40, 49, 73); opacity: 1; font-weight: normal; white-space: pre;">Date</text></g><g class="g-ytitle"><text class="ytitle" transform="rotate(-90,40.840625,231.5)" x="40.840625" y="231.5" text-anchor="middle" style="font-family: 'Open Sans', verdana, arial, sans-serif; font-size: 14px; fill: rgb(40, 49, 73); opacity: 1; font-weight: normal; white-space: pre;">New connections</text></g></g></svg>