<svg class="main-svg" xmlns="http://www.w3.org/2000/svg" xmlns:xlink="http://www.w3.org/1999/xlink" width="700" height="500" style="" viewBox="0 0 700 500"><rect x="0" y="0" width="700" height="500" style="fill: rgb(255, 255, 255); fill-opacity: 1;"/><defs id="defs-87df65"><g class="clips"><clipPath id="clip87df65xyplot" class="plotclip"><rect width="540" height="331"/></clipPath><clipPath class="axesclip" id="clip87df65x"><rect x="80" y="0" width="540" height="500"/></clipPath><clipPath class="axesclip" id="clip87df65y"><rect x="0" y="60" width="700" height="331"/></clipPath><clipPath class="axesclip" id="clip87df65xy"><rect x="80" y="60" width="540" height="331"/></clipPath></g><g class="gradients"/><g class="patterns"/></defs><g class="bglayer"><rect class="bg" x="80" y="60" width="540" height="331" style="fill: rgb(219, 237, 243); fill-opacity: 1; stroke-width: 0;"/></g><g class="layer-below"><g class="imagelayer"/><g class="shapelayer"/></g><g class="cartesianlayer"><g class="subplot xy"><g class="layer-subplot"><g class="shapelayer"/><g class="imagelayer"/></g><g class="gridlayer"><g class="x"><path class="xgrid crisp" transform="translate(110.75,0)" d="M0,60v331" style="stroke: rgb(255, 255, 255); stroke-opacity: 1; stroke-width: 1px;"/><path class="xgrid crisp" transform="translate(129.15,0)" d="M0,60v331" style="stroke: rgb(255, 255, 255); stroke-opacity: 1; stroke-width: 1px;"/><path class="xgrid crisp" transform="translate(147.56,0)" d="M0,60v331" style="stroke: rgb(255, 255, 255); stroke-opacity: 1; stroke-width: 1px;"/><path class="xgrid crisp" transform="translate(165.95999999999998,0)" d="M0,60v331" style="stroke: rgb(255, 255, 255); stroke-opacity: 1; stroke-width: 1px;"/><path class="xgrid crisp" transform="translate(184.37,0)" d="M0,60v331" style="stroke: rgb(255, 255, 255); stroke-opacity: 1; stroke-width: 1px;"/><path class="xgrid crisp" transform="translate(202.76999999999998,0)" d="M0,60v331" style="stroke: rgb(255, 255, 255); stroke-opacity: 1; stroke-width: 1px;"/><path class="xgrid crisp" transform="translate(221.17,0)" d="M0,60v331" style="stroke: rgb(255, 255, 255); stroke-opacity: 1; stroke-width: 1px;"/><path class="xgrid crisp" transform="translate(239.58,0)" d="M0,60v331" style="stroke: rgb(255, 255, 255); stroke-opacity: 1; stroke-width: 1px;"/><path class="xgrid crisp" transform="translate(257.98,0)" d="M0,60v331" style="stroke: rgb(255, 255, 255); stroke-opacity: 1; stroke-width: 1px;"/><path class="xgrid crisp" transform="translate(276.38,0)" d="M0,60v331" style="stroke: rgb(255, 255, 255); stroke-opacity: 1; stroke-width: 1px;"/><path class="xgrid crisp" transform="translate(294.78999999999996,0)" d="M0,60v331" style="stroke: rgb(255, 255, 255); stroke-opacity: 1; stroke-width: 1px;"/><path class="xgrid crisp" transform="translate(313.19,0)" d="M0,60v331" style="stroke: rgb(255, 255, 255); stroke-opacity: 1; stroke-width: 1px;"/><path class="xgrid crisp" transform="translate(331.6,0)" d="M0,60v331" style="stroke: rgb(255, 255, 255); stroke-opacity: 1; stroke-width: 1px;"/><path class="xgrid crisp" transform="translate(350,0)" d="M0,60v331" style="stroke: rgb(255, 255, 255); stroke-opacity: 1; stroke-width: 1px;"/><path class="xgrid crisp" transform="translate(368.4,0)" d="M0,60v331" style="stroke: rgb(255, 255, 255); stroke-opacity: 1; stroke-width: 1px;"/><path class="xgrid crisp" transform="translate(386.81,0)" d="M0,60v331" style="stroke: rgb(255, 255, 255); stroke-opacity: 1; stroke-width: 1px;"/><path class="xgrid crisp" transform="translate(405.21,0)" d="M0,60v331" style="stroke: rgb(255, 255, 255); stroke-opacity: 1; stroke-width: 1px;"/><path class="xgrid crisp" transform="translate(423.62,0)" d="M0,60v331" style="stroke: rgb(255, 255, 255); stroke-opacity: 1; stroke-width: 1px;"/><path class="xgrid crisp" transform="translate(442.02,0)" d="M0,60v331" style="stroke: rgb(255, 255, 255); stroke-opacity: 1; stroke-width: 1px;"/><path class="xgrid crisp" transform="translate(460.42,0)" d="M0,60v331" style="stroke: rgb(255, 255, 255); stroke-opacity: 1; stroke-width: 1px;"/><path class="xgrid crisp" transform="translate(478.83,0)" d="M0,60v331" style="stroke: rgb(255, 255, 255); stroke-opacity: 1; stroke-width: 1px;"/><path class="xgrid crisp" transform="translate(497.23,0)" d="M0,60v331" style="stroke: rgb(255, 255, 255); stroke-opacity: 1; stroke-width: 1px;"/><path class="xgrid crisp" transform="translate(515.63,0)" d="M0,60v331" style="stroke: rgb(255, 255, 255); stroke-opacity: 1; stroke-width: 1px;"/><path class="xgrid crisp" transform="translate(534.04,0)" d="M0,60v331" style="stroke: rgb(255, 255, 255); stroke-opacity: 1; stroke-width: 1px;"/><path class="xgrid crisp" transform="translate(552.44,0)" d="M0,60v331" style="stroke: rgb(255, 255, 255); stroke-opacity: 1; stroke-width: 1px;"/><path class="xgrid crisp" transform="translate(570.85,0)" d="M0,60v331" style="stroke: rgb(255, 255, 255); stroke-opacity: 1; stroke-width: 1px;"/><path class="xgrid crisp" transform="translate(589.25,0)" d="M0,60v331" style="stroke: rgb(255, 255, 255); stroke-opacity: 1; stroke-width: 1px;"/></g><g class="y"><path class="ygrid crisp" transform="translate(0,346.5)" d="M80,0h540" style="stroke: rgb(255, 255, 255); stroke-opacity: 1; stroke-width: 1px;"/><path class="ygrid crisp" transform="translate(0,298.1)" d="M80,0h540" style="stroke: rgb(255, 255, 255); stroke-opacity: 1; stroke-width: 1px;"/><path class="ygrid crisp" transform="translate(0,249.7)" d="M80,0h540" style="stroke: rgb(255, 255, 255); stroke-opacity: 1; stroke-width: 1px;"/><path class="ygrid crisp" transform="translate(0,201.3)" d="M80,0h540" style="stroke: rgb(255, 255, 255); stroke-opacity: 1; stroke-width: 1px;"/><path class="ygrid crisp" transform="translate(0,152.9)" d="M80,0h540" style="stroke: rgb(255, 255, 255); stroke-opacity: 1; stroke-width: 1px;"/><path class="ygrid crisp" transform="translate(0,104.5)" d="M80,0h540" style="stroke: rgb(255, 255, 255); stroke-opacity: 1; stroke-width: 1px;"/></g></g><g class="zerolinelayer"/><path class="xlines-below"/><path class="ylines-below"/><g class="overlines-below"/><g class="xaxislayer-below"/><g class="yaxislayer-below"/><g class="overaxes-below"/><g class="plot" transform="translate(80,60)" clip-path="url(#clip87df65xyplot)"><g class="scatterlayer mlayer"><g class="trace scatter trace0445ef" style="stroke-miterlimit: 2; opacity: 1;"><g class="fills"/><g class="errorbars"/><g class="lines"><path class="js-line" d="M30.75,310.7L49.15,20.3L67.56,286.5L85.96,286.5L104.37,238.1L122.77,238.1L141.17,262.3L159.58,310.7L177.98,310.7L233.19,310.7L251.6,286.5L270,310.7L288.4,310.7L306.81,310.7L325.21,165.5L343.62,238.1L362.02,262.3L380.42,286.5L398.83,262.3L417.23,310.7L435.63,286.5L454.04,310.7L472.44,165.5L490.85,68.7L509.25,286.5" style="vector-effect: non-scaling-stroke; fill: none; stroke: rgb(64, 75, 105); stroke-opacity: 1; stroke-width: 2px; opacity: 1;"/></g><g class="points"><path class="point" transform="translate(30.75,310.7)" d="M3,0A3,3 0 1,1 0,-3A3,3 0 0,1 3,0Z" style="opacity: 1; stroke-width: 0px; fill: rgb(64, 75, 105); fill-opacity: 1;"/><path class="point" transform="translate(49.15,20.3)" d="M3,0A3,3 0 1,1 0,-3A3,3 0 0,1 3,0Z" style="opacity: 1; stroke-width: 0px; fill: rgb(64, 75, 105); fill-opacity: 1;"/><path class="point" transform="translate(67.56,286.5)" d="M3,0A3,3 0 1,1 0,-3A3,3 0 0,1 3,0Z" style="opacity: 1; stroke-width: 0px; fill: rgb(64, 75, 105); fill-opacity: 1;"/><path class="point" transform="translate(85.96,286.5)" d="M3,0A3,3 0 1,1 0,-3A3,3 0 0,1 3,0Z" style="opacity: 1; stroke-width: 0px; fill: rgb(64, 75, 105); fill-opacity: 1;"/><path class="point" transform="translate(104.37,238.1)" d="M3,0A3,3 0 1,1 0,-3A3,3 0 0,1 3,0Z" style="opacity: 1; stroke-width: 0px; fill: rgb(64, 75, 105); fill-opacity: 1;"/><path class="point" transform="translate(122.77,238.1)" d="M3,0A3,3 0 1,1 0,-3A3,3 0 0,1 3,0Z" style="opacity: 1; stroke-width: 0px; fill: rgb(64, 75, 105); fill-opacity: 1;"/><path class="point" transform="translate(141.17,262.3)" d="M3,0A3,3 0 1,1 0,-3A3,3 0 0,1 3,0Z" style="opacity: 1; stroke-width: 0px; fill: rgb(64, 75, 105); fill-opacity: 1;"/><path class="point" transform="translate(159.58,310.7)" d="M3,0A3,3 0 1,1 0,-3A3,3 0 0,1 3,0Z" style="opacity: 1; stroke-width: 0px; fill: rgb(64, 75, 105); fill-opacity: 1;"/><path class="point" transform="translate(177.98,310.7)" d="M3,0A3,3 0 1,1 0,-3A3,3 0 0,1 3,0Z" style="opacity: 1; stroke-width: 0px; fill: rgb(64, 75, 105); fill-opacity: 1;"/><path class="point" transform="translate(196.38,310.7)" d="M3,0A3,3 0 1,1 0,-3A3,3 0 0,1 3,0Z" style="opacity: 1; stroke-width: 0px; fill: rgb(64, 75, 105); fill-opacity: 1;"/><path class="point" transform="translate(214.79,310.7)" d="M3,0A3,3 0 1,1 0,-3A3,3 0 0,1 3,0Z" style="opacity: 1; stroke-width: 0px; fill: rgb(64, 75, 105); fill-opacity: 1;"/><path class="point" transform="translate(233.19,310.7)" d="M3,0A3,3 0 1,1 0,-3A3,3 0 0,1 3,0Z" style="opacity: 1; stroke-width: 0px; fill: rgb(64, 75, 105); fill-opacity: 1;"/><path class="point" transform="translate(251.6,286.5)" d="M3,0A3,3 0 1,1 0,-3A3,3 0 0,1 3,0Z" style="opacity: 1; stroke-width: 0px; fill: rgb(64, 75, 105); fill-opacity: 1;"/><path class="point" transform="translate(270,310.7)" d="M3,0A3,3 0 1,1 0,-3A3,3 0 0,1 3,0Z" style="opacity: 1; stroke-width: 0px; fill: rgb(64, 75, 105); fill-opacity: 1;"/><path class="point" transform="translate(288.4,310.7)" d="M3,0A3,3 0 1,1 0,-3A3,3 0 0,1 3,0Z" style="opacity: 1; stroke-width: 0px; fill: rgb(64, 75, 105); fill-opacity: 1;"/><path class="point" transform="translate(306.81,310.7)" d="M3,0A3,3 0 1,1 0,-3A3,3 0 0,1 3,0Z" style="opacity: 1; stroke-width: 0px; fill: rgb(64, 75, 105); fill-opacity: 1;"/><path class="point" transform="translate(325.21,165.5)" d="M3,0A3,3 0 1,1 0,-3A3,3 0 0,1 3,0Z" style="opacity: 1; stroke-width: 0px; fill: rgb(64, 75, 105); fill-opacity: 1;"/><path class="point" transform="translate(343.62,238.1)" d="M3,0A3,3 0 1,1 0,-3A3,3 0 0,1 3,0Z" style="opacity: 1; stroke-width: 0px; fill: rgb(64, 75, 105); fill-opacity: 1;"/><path class="point" transform="translate(362.02,262.3)" d="M3,0A3,3 0 1,1 0,-3A3,3 0 0,1 3,0Z" style="opacity: 1; stroke-width: 0px; fill: rgb(64, 75, 105); fill-opacity: 1;"/><path class="point" transform="translate(380.42,286.5)" d="M3,0A3,3 0 1,1 0,-3A3,3 0 0,1 3,0Z" style="opacity: 1; stroke-width: 0px; fill: rgb(64, 75, 105); fill-opacity: 1;"/><path class="point" transform="translate(398.83,262.3)" d="M3,0A3,3 0 1,1 0,-3A3,3 0 0,1 3,0Z" style="opacity: 1; stroke-width: 0px; fill: rgb(64, 75, 105); fill-opacity: 1;"/><path class="point" transform="translate(417.23,310.7)" d="M3,0A3,3 0 1,1 0,-3A3,3 0 0,1 3,0Z" style="opacity: 1; stroke-width: 0px; fill: rgb(64, 75, 105); fill-opacity: 1;"/><path class="point" transform="translate(435.63,286.5)" d="M3,0A3,3 0 1,1 0,-3A3,3 0 0,1 3,0Z" style="opacity: 1; stroke-width: 0px; fill: rgb(64, 75, 105); fill-opacity: 1;"/><path class="point" transform="translate(454.04,310.7)" d="M3,0A3,3 0 1,1 0,-3A3,3 0 0,1 3,0Z" style="opacity: 1; stroke-width: 0px; fill: rgb(64, 75, 105); fill-opacity: 1;"/><path class="point" transform="translate(472.44,165.5)" d="M3,0A3,3 0 1,1 0,-3A3,3 0 0,1 3,0Z" style="opacity: 1; stroke-width: 0px; fill: rgb(64, 75, 105); fill-opacity: 1;"/><path class="point" transform="translate(490.85,68.7)" d="M3,0A3,3 0 1,1 0,-3A3,3 0 0,1 3,0Z" style="opacity: 1; stroke-width: 0px; fill: rgb(64, 75, 105); fill-opacity: 1;"/><path class="point" transform="translate(509.25,286.5)" d="M3,0A3,3 0 1,1 0,-3A3,3 0 0,1 3,0Z" style="opacity: 1; stroke-width: 0px; fill: rgb(64, 75, 105); fill-opacity: 1;"/></g><g class="text"/></g></g></g><g class="overplot"/><path class="xlines-above crisp" d="M0,0" style="fill: none;"/><path class="ylines-above crisp" d="M0,0" style="fill: none;"/><g class="overlines-above"/><g class="xaxislayer-above"><g class="xtick"><text text-anchor="start" x="0" y="406" transform="translate(110.75,0) rotate(90,0,399)" style="font-family: 'Open Sans', verdana, arial, sans-serif; font-size: 14px; fill: rgb(40, 49, 73); fill-opacity: 1; white-space: pre; opacity: 1;">Jan 2018</text></g><g class="xtick"><text text-anchor="start" x="0" y="406" transform="translate(129.15,0) rotate(90,0,399)" style="font-family: 'Open Sans', verdana, arial, sans-serif; font-size: 14px; fill: rgb(40, 49, 73); fill-opacity: 1; white-space: pre; opacity: 1;">Feb 2018</text></g><g class="xtick"><text text-anchor="start" x="0" y="406" transform="translate(147.56,0) rotate(90,0,399)" style="font-family: 'Open Sans', verdana, arial, sans-serif; font-size: 14px; fill: rgb(40, 49, 73); fill-opacity: 1; white-space: pre; opacity: 1;">Mar 2018</text></g><g class="xtick"><text text-anchor="start" x="0" y="406" transform="translate(165.95999999999998,0) rotate(90,0,399)" style="font-family: 'Open Sans', verdana, arial, sans-serif; font-size: 14px; fill: rgb(40, 49, 73); fill-opacity: 1; white-space: pre; opacity: 1;">Apr 2018</text></g><g class="xtick"><text text-anchor="start" x="0" y="406" transform="translate(184.37,0) rotate(90,0,399)" style="font-family: 'Open Sans', verdana, arial, sans-serif; font-size: 14px; fill: rgb(40, 49, 73); fill-opacity: 1; white-space: pre; opacity: 1;">May 2018</text></g><g class="xtick"><text text-anchor="start" x="0" y="406" transform="translate(202.76999999999998,0) rotate(90,0,399)" style="font-family: 'Open Sans', verdana, arial, sans-serif; font-size: 14px; fill: rgb(40, 49, 73); fill-opacity: 1; white-space: pre; opacity: 1;">Jul 2018</text></g><g class="xtick"><text text-anchor="start" x="0" y="406" transform="translate(221.17,0) rotate(90,0,399)" style="font-family: 'Open Sans', verdana, arial, sans-serif; font-size: 14px; fill: rgb(40, 49, 73); fill-opacity: 1; white-space: pre; opacity: 1;">Aug 2018</text></g><g class="xtick"><text text-anchor="start" x="0" y="406" transform="translate(239.58,0) rotate(90,0,399)" style="font-family: 'Open Sans', verdana, arial, sans-serif; font-size: 14px; fill: rgb(40, 49, 73); fill-opacity: 1; white-space: pre; opacity: 1;">Sep 2018</text></g><g class="xtick"><text text-anchor="start" x="0" y="406" transform="translate(257.98,0) rotate(90,0,399)" style="font-family: 'Open Sans', verdana, arial, sans-serif; font-size: 14px; fill: rgb(40, 49, 73); fill-opacity: 1; white-space: pre; opacity: 1;">Jan 2019</text></g><g class="xtick"><text text-anchor="start" x="0" y="406" transform="translate(276.38,0) rotate(90,0,399)" style="font-family: 'Open Sans', verdana, arial, sans-serif; font-size: 14px; fill: rgb(40, 49, 73); fill-opacity: 1; white-space: pre; opacity: 1;">Feb 2019</text></g><g class="xtick"><text text-anchor="start" x="0" y="406" transform="translate(294.78999999999996,0) rotate(90,0,399)" style="font-family: 'Open Sans', verdana, arial, sans-serif; font-size: 14px; fill: rgb(40, 49, 73); fill-opacity: 1; white-space: pre; opacity: 1;">Mar 2019</text></g><g class="xtick"><text text-anchor="start" x="0" y="406" transform="translate(313.19,0) rotate(90,0,399)" style="font-family: 'Open Sans', verdana, arial, sans-serif; font-size: 14px; fill: rgb(40, 49, 73); fill-opacity: 1; white-space: pre; opacity: 1;">May 2019</text></g><g class="xtick"><text text-anchor="start" x="0" y="406" transform="translate(331.6,0) rotate(90,0,399)" style="font-family: 'Open Sans', verdana, arial, sans-serif; font-size: 14px; fill: rgb(40, 49, 73); fill-opacity: 1; white-space: pre; opacity: 1;">Jun 2019</text></g><g class="xtick"><text text-anchor="start" x="0" y="406" transform="translate(350,0) rotate(90,0,399)" style="font-family: 'Open Sans', verdana, arial, sans-serif; font-size: 14px; fill: rgb(40, 49, 73); fill-opacity: 1; white-space: pre; opacity: 1;">Jul 2019</text></g><g class="xtick"><text text-anchor="start" x="0" y="406" transform="translate(368.4,0) rotate(90,0,399)" style="font-family: 'Open Sans', verdana, arial, sans-serif; font-size: 14px; fill: rgb(40, 49, 73); fill-opacity: 1; white-space: pre; opacity: 1;">Sep 2019</text></g><g class="xtick"><text text-anchor="start" x="0" y="406" transform="translate(386.81,0) rotate(90,0,399)" style="font-family: 'Open Sans', verdana, arial, sans-serif; font-size: 14px; fill: rgb(40, 49, 73); fill-opacity: 1; white-space: pre; opacity: 1;">Mar 2020</text></g><g class="xtick"><text text-anchor="start" x="0" y="406" transform="translate(405.21,0) rotate(90,0,399)" style="font-family: 'Open Sans', verdana, arial, sans-serif; font-size: 14px; fill: rgb(40, 49, 73); fill-opacity: 1; white-space: pre; opacity: 1;">Aug 2020</text></g><g class="xtick"><text text-anchor="start" x="0" y="406" transform="translate(423.62,0) rotate(90,0,399)" style="font-family: 'Open Sans', verdana, arial, sans-serif; font-size: 14px; fill: rgb(40, 49, 73); fill-opacity: 1; white-space: pre; opacity: 1;">Sep 2020</text></g><g class="xtick"><text text-anchor="start" x="0" y="406" transform="translate(442.02,0) rotate(90,0,399)" style="font-family: 'Open Sans', verdana, arial, sans-serif; font-size: 14px; fill: rgb(40, 49, 73); fill-opacity: 1; white-space: pre; opacity: 1;">Oct 2020</text></g><g class="xtick"><text text-anchor="start" x="0" y="406" transform="translate(460.42,0) rotate(90,0,399)" style="font-family: 'Open Sans', verdana, arial, sans-serif; font-size: 14px; fill: rgb(40, 49, 73); fill-opacity: 1; white-space: pre; opacity: 1;">Nov 2020</text></g><g class="xtick"><text text-anchor="start" x="0" y="406" transform="translate(478.83,0) rotate(90,0,399)" style="font-family: 'Open Sans', verdana, arial, sans-serif; font-size: 14px; fill: rgb(40, 49, 73); fill-opacity: 1; white-space: pre; opacity: 1;">Dec 2020</text></g><g class="xtick"><text text-anchor="start" x="0" y="406" transform="translate(497.23,0) rotate(90,0,399)" style="font-family: 'Open Sans', verdana, arial, sans-serif; font-size: 14px; fill: rgb(40, 49, 73); fill-opacity: 1; white-space: pre; opacity: 1;">Jan 2021</text></g><g class="xtick"><text text-anchor="start" x="0" y="406" transform="translate(515.63,0) rotate(90,0,399)" style="font-family: 'Open Sans', verdana, arial, sans-serif; font-size: 14px; fill: rgb(40, 49, 73); fill-opacity: 1; white-space: pre; opacity: 1;">Mar 2021</text></g><g class="xtick"><text text-anchor="start" x="0" y="406" transform="translate(534.04,0) rotate(90,0,399)" style="font-family: 'Open Sans', verdana, arial, sans-serif; font-size: 14px; fill: rgb(40, 49, 73); fill-opacity: 1; white-space: pre; opacity: 1;">Apr 2021</text></g><g class="xtick"><text text-anchor="start" x="0" y="406" transform="translate(552.44,0) rotate(90,0,399)" style="font-family: 'Open Sans', verdana, arial, sans-serif; font-size: 14px; fill: rgb(40, 49, 73); fill-opacity: 1; white-space: pre; opacity: 1;">May 2021</text></g><g class="xtick"><text text-anchor="start" x="0" y="406" transform="translate(570.85,0) rotate(90,0,399)" style="font-family: 'Open Sans', verdana, arial, sans-serif; font-size: 14px; fill: rgb(40, 49, 73); fill-opacity: 1; white-space: pre; opacity: 1;">Jun 2021</text></g><g class="xtick"><text text-anchor="start" x="0" y="406" transform="translate(589.25,0) rotate(90,0,399)" style="font-family: 'Open Sans', verdana, arial, sans-serif; font-size: 14px; fill: rgb(40, 49, 73); fill-opacity: 1; white-space: pre; opacity: 1;">Jul 2021</text></g></g><g class="yaxislayer-above"><g class="ytick"><text text-anchor="end" x="79" y="4.8999999999999995" transform="translate(0,346.5)" style="font-family: 'Open Sans', verdana, arial, sans-serif; font-size: 14px; fill: rgb(40, 49, 73); fill-opacity: 1; white-space: pre; opacity: 1;">2</text></g><g class="ytick"><text text-anchor="end" x="79" y="4.8999999999999995" style="font-family: 'Open Sans', verdana, arial, sans-serif; font-size: 14px; fill: rgb(40, 49, 73); fill-opacity: 1; white-space: pre; opacity: 1;" transform="translate(0,298.1)">4</text></g><g class="ytick"><text text-anchor="end" x="79" y="4.8999999999999995" style="font-family: 'Open Sans', verdana, arial, sans-serif; font-size: 14px; fill: rgb(40, 49, 73); fill-opacity: 1; white-space: pre; opacity: 1;" transform="translate(0,249.7)">6</text></g><g class="ytick"><text text-anchor="end" x="79" y="4.8999999999999995" style="font-family: 'Open Sans', verdana, arial, sans-serif; font-size: 14px; fill: rgb(40, 49, 73); fill-opacity: 1; white-space: pre; opacity: 1;" transform="translate(0,201.3)">8</text></g><g class="ytick"><text text-anchor="end" x="79" y="4.8999999999999995" style="font-family: 'Open Sans', verdana, arial, sans-serif; font-size: 14px; fill: rgb(40, 49, 73); fill-opacity: 1; white-space: pre; opacity: 1;" transform="translate(0,152.9)">10</text></g><g class="ytick"><text text-anchor="end" x="79" y="4.8999999999999995" style="font-family: 'Open Sans', verdana, arial, sans-serif; font-size: 14px; fill: rgb(40, 49, 73); fill-opacity: 1; white-space: pre; opacity: 1;" transform="translate(0,104.5)">12</text></g></g><g class="overaxes-above"/></g></g><g class="polarlayer"/><g class="smithlayer"/><g class="ternarylayer"/><g class="geolayer"/><g class="funnelarealayer"/><g class="pielayer"/><g class="iciclelayer"/><g class="treemaplayer"/><g class="sunburstlayer"/><g class="glimages"/><defs id="topdefs-87df65"><g class="clips"/></defs><g class="layer-above"><g class="imagelayer"/><g class="shapelayer"/></g><g class="infolayer"><g class="g-gtitle"><text class="gtitle" x="35" y="30" text-anchor="start" dy="0em" style="font-family: 'Open Sans', verdana, arial, sans-serif; font-size: 20px; fill: rgb(40, 49, 73); opacity: 1; font-weight: normal; white-space: pre;">Time series of new connections</text></g><g class="g-xtitle"><text class="xtitle" x="350" y="487.603125" text-anchor="middle" style="font-family: 'Open Sans', verdana, arial, sans-serif; font-size: 17px; fill: rgb(40, 49, 73); opacity: 1; font-weight: normal; white-space: pre;">Date</text></g><g class="g-ytitle"><text class="ytitle" transform="rotate(-90,36.521875,225.5)" x="36.521875" y="225.5" text-anchor="middle" style="font-family: 'Open Sans', verdana, arial, sans-serif; font-size: 17px; fill: rgb(40, 49, 73); opacity: 1; font-weight: normal; white-space: pre;">New connections</text></g></g></svg>