<svg class="main-svg" xmlns="http://www.w3.org/2000/svg" xmlns:xlink="http://www.w3.org/1999/xlink" width="700" height="500" style="" viewBox="0 0 700 500"><rect x="0" y="0" width="700" height="500" style="fill: rgb(255, 255, 255); fill-opacity: 1;"/><defs id="defs-9f734f"><g class="clips"><clipPath id="clip9f734fxyplot" class="plotclip"><rect width="540" height="360"/></clipPath><clipPath class="axesclip" id="clip9f734fx"><rect x="80" y="0" width="540" height="500"/></clipPath><clipPath class="axesclip" id="clip9f734fy"><rect x="0" y="60" width="700" height="360"/></clipPath><clipPath class="axesclip" id="clip9f734fxy"><rect x="80" y="60" width="540" height="360"/></clipPath></g><g class="gradients"/><g class="patterns"/></defs><g class="bglayer"><rect class="bg" x="80" y="60" width="540" height="360" style="fill: rgb(219, 237, 243); fill-opacity: 1; stroke-width: 0;"/></g><g class="layer-below"><g class="imagelayer"/><g class="shapelayer"/></g><g class="cartesianlayer"><g class="subplot xy"><g class="layer-subplot"><g class="shapelayer"/><g class="imagelayer"/></g><g class="gridlayer"><g class="x"><path class="xgrid crisp" transform="translate(120.15,0)" d="M0,60v360" style="stroke: rgb(255, 255, 255); stroke-opacity: 1; stroke-width: 1px;"/><path class="xgrid crisp" transform="translate(194.72,0)" d="M0,60v360" style="stroke: rgb(255, 255, 255); stroke-opacity: 1; stroke-width: 1px;"/><path class="xgrid crisp" transform="translate(270.11,0)" d="M0,60v360" style="stroke: rgb(255, 255, 255); stroke-opacity: 1; stroke-width: 1px;"/><path class="xgrid crisp" transform="translate(345.49,0)" d="M0,60v360" style="stroke: rgb(255, 255, 255); stroke-opacity: 1; stroke-width: 1px;"/><path class="xgrid crisp" transform="translate(419.24,0)" d="M0,60v360" style="stroke: rgb(255, 255, 255); stroke-opacity: 1; stroke-width: 1px;"/><path class="xgrid crisp" transform="translate(493.81,0)" d="M0,60v360" style="stroke: rgb(255, 255, 255); stroke-opacity: 1; stroke-width: 1px;"/><path class="xgrid crisp" transform="translate(569.2,0)" d="M0,60v360" style="stroke: rgb(255, 255, 255); stroke-opacity: 1; stroke-width: 1px;"/></g><g class="y"><path class="ygrid crisp" transform="translate(0,354)" d="M80,0h540" style="stroke: rgb(255, 255, 255); stroke-opacity: 1; stroke-width: 1px;"/><path class="ygrid crisp" transform="translate(0,294)" d="M80,0h540" style="stroke: rgb(255, 255, 255); stroke-opacity: 1; stroke-width: 1px;"/><path class="ygrid crisp" transform="translate(0,234)" d="M80,0h540" style="stroke: rgb(255, 255, 255); stroke-opacity: 1; stroke-width: 1px;"/><path class="ygrid crisp" transform="translate(0,174)" d="M80,0h540" style="stroke: rgb(255, 255, 255); stroke-opacity: 1; stroke-width: 1px;"/><path class="ygrid crisp" transform="translate(0,114)" d="M80,0h540" style="stroke: rgb(255, 255, 255); stroke-opacity: 1; stroke-width: 1px;"/></g></g><g class="zerolinelayer"><path class="yzl zl crisp" transform="translate(0,414)" d="M80,0h540" style="stroke: rgb(255, 255, 255); stroke-opacity: 1; stroke-width: 2px;"/></g><path class="xlines-below"/><path class="ylines-below"/><g class="overlines-below"/><g class="xaxislayer-below"/><g class="yaxislayer-below"/><g class="overaxes-below"/><g class="plot" transform="translate(80,60)" clip-path="url(#clip9f734fxyplot)"><g class="scatterlayer mlayer"><g class="trace scatter trace191b9c" style="stroke-miterlimit: 2; opacity: 1;"><g class="fills"/><g class="errorbars"/><g class="lines"><path class="js-line" d="M0,318L78.66,330L118,306L141.76,258L144.22,126L145.04,258L160.61,306L189.29,330L195.84,270L199.12,198L206.49,114L208.13,330L208.95,222L210.59,162L214.69,306L222.06,330L222.88,234L227.8,234L235.17,18L237.63,234L281.88,330L285.16,330L292.53,234L296.63,342L322.03,138L390.05,318L408.89,258L409.71,306L410.53,306L412.17,258L412.99,306L415.45,306L416.27,246L417.09,306L417.91,306L424.46,306L425.28,198L426.1,306L426.92,306L431.02,306L431.84,150L432.66,306L433.47,306L435.11,258L436.75,258L437.57,306L438.39,306L458.06,306L459.7,258L460.52,306L461.34,306L462.97,306L464.61,258L465.43,306L466.25,306L467.89,306L469.53,258L470.35,306L471.17,306L472.81,258L473.63,306L476.08,306L477.72,258L478.54,306L479.36,306L502.31,306L503.95,258L504.76,222L505.58,306L517.06,306L517.88,270L518.69,306L519.51,306L521.15,258L521.97,306L522.79,306L524.43,222L525.25,306L526.07,306L528.53,306L530.17,258L530.99,306L531.81,306L533.44,306L534.26,198L536.72,306L538.36,258L540,306" style="vector-effect: non-scaling-stroke; fill: none; stroke: rgb(64, 75, 105); stroke-opacity: 1; stroke-width: 2px; opacity: 1;"/></g><g class="points"/><g class="text"/></g></g></g><g class="overplot"/><path class="xlines-above crisp" d="M0,0" style="fill: none;"/><path class="ylines-above crisp" d="M0,0" style="fill: none;"/><g class="overlines-above"/><g class="xaxislayer-above"><g class="xtick"><text text-anchor="middle" x="0" y="435" transform="translate(120.15,0)" style="font-family: 'Open Sans', verdana, arial, sans-serif; font-size: 14px; fill: rgb(40, 49, 73); fill-opacity: 1; white-space: pre; opacity: 1;">Apr 2020</text></g><g class="xtick"><text text-anchor="middle" x="0" y="435" style="font-family: 'Open Sans', verdana, arial, sans-serif; font-size: 14px; fill: rgb(40, 49, 73); fill-opacity: 1; white-space: pre; opacity: 1;" transform="translate(194.72,0)">Jul 2020</text></g><g class="xtick"><text text-anchor="middle" x="0" y="435" style="font-family: 'Open Sans', verdana, arial, sans-serif; font-size: 14px; fill: rgb(40, 49, 73); fill-opacity: 1; white-space: pre; opacity: 1;" transform="translate(270.11,0)">Oct 2020</text></g><g class="xtick"><text text-anchor="middle" x="0" y="435" style="font-family: 'Open Sans', verdana, arial, sans-serif; font-size: 14px; fill: rgb(40, 49, 73); fill-opacity: 1; white-space: pre; opacity: 1;" transform="translate(345.49,0)">Jan 2021</text></g><g class="xtick"><text text-anchor="middle" x="0" y="435" style="font-family: 'Open Sans', verdana, arial, sans-serif; font-size: 14px; fill: rgb(40, 49, 73); fill-opacity: 1; white-space: pre; opacity: 1;" transform="translate(419.24,0)">Apr 2021</text></g><g class="xtick"><text text-anchor="middle" x="0" y="435" style="font-family: 'Open Sans', verdana, arial, sans-serif; font-size: 14px; fill: rgb(40, 49, 73); fill-opacity: 1; white-space: pre; opacity: 1;" transform="translate(493.81,0)">Jul 2021</text></g><g class="xtick"><text text-anchor="middle" x="0" y="435" style="font-family: 'Open Sans', verdana, arial, sans-serif; font-size: 14px; fill: rgb(40, 49, 73); fill-opacity: 1; white-space: pre; opacity: 1;" transform="translate(569.2,0)">Oct 2021</text></g></g><g class="yaxislayer-above"><g class="ytick"><text text-anchor="end" x="79" y="4.8999999999999995" transform="translate(0,414)" style="font-family: 'Open Sans', verdana, arial, sans-serif; font-size: 14px; fill: rgb(40, 49, 73); fill-opacity: 1; white-space: pre; opacity: 1;">0</text></g><g class="ytick"><text text-anchor="end" x="79" y="4.8999999999999995" style="font-family: 'Open Sans', verdana, arial, sans-serif; font-size: 14px; fill: rgb(40, 49, 73); fill-opacity: 1; white-space: pre; opacity: 1;" transform="translate(0,354)">5</text></g><g class="ytick"><text text-anchor="end" x="79" y="4.8999999999999995" style="font-family: 'Open Sans', verdana, arial, sans-serif; font-size: 14px; fill: rgb(40, 49, 73); fill-opacity: 1; white-space: pre; opacity: 1;" transform="translate(0,294)">10</text></g><g class="ytick"><text text-anchor="end" x="79" y="4.8999999999999995" style="font-family: 'Open Sans', verdana, arial, sans-serif; font-size: 14px; fill: rgb(40, 49, 73); fill-opacity: 1; white-space: pre; opacity: 1;" transform="translate(0,234)">15</text></g><g class="ytick"><text text-anchor="end" x="79" y="4.8999999999999995" style="font-family: 'Open Sans', verdana, arial, sans-serif; font-size: 14px; fill: rgb(40, 49, 73); fill-opacity: 1; white-space: pre; opacity: 1;" transform="translate(0,174)">20</text></g><g class="ytick"><text text-anchor="end" x="79" y="4.8999999999999995" style="font-family: 'Open Sans', verdana, arial, sans-serif; font-size: 14px; fill: rgb(40, 49, 73); fill-opacity: 1; white-space: pre; opacity: 1;" transform="translate(0,114)">25</text></g></g><g class="overaxes-above"/></g></g><g class="polarlayer"/><g class="smithlayer"/><g class="ternarylayer"/><g class="geolayer"/><g class="funnelarealayer"/><g class="pielayer"/><g class="iciclelayer"/><g class="treemaplayer"/><g class="sunburstlayer"/><g class="glimages"/><defs id="topdefs-9f734f"><g class="clips"/></defs><g class="layer-above"><g class="imagelayer"/><g class="shapelayer"/></g><g class="infolayer"><g class="g-gtitle"><text class="gtitle" x="35" y="30" text-anchor="start" dy="0em" style="font-family: 'Open Sans', verdana, arial, sans-serif; font-size: 20px; fill: rgb(40, 49, 73); opacity: 1; font-weight: normal; white-space: pre;">Time series of daily searches</text></g><g class="g-xtitle"><text class="xtitle" x="350" y="464.9" text-anchor="middle" style="font-family: 'Open Sans', verdana, arial, sans-serif; font-size: 17px; fill: rgb(40, 49, 73); opacity: 1; font-weight: normal; white-space: pre;">Date</text></g><g class="g-ytitle"><text class="ytitle" transform="rotate(-90,36.521875,240)" x="36.521875" y="240" text-anchor="middle" style="font-family: 'Open Sans', verdana, arial, sans-serif; font-size: 17px; fill: rgb(40, 49, 73); opacity: 1; font-weight: normal; white-space: pre;">Daily searches</text></g></g></svg>